<?xml version="1.0" standalone="no"?>
<!DOCTYPE svg PUBLIC "-//W3C//DTD SVG 20010904//EN"
 "http://www.w3.org/TR/2001/REC-SVG-20010904/DTD/svg10.dtd">
<svg version="1.0" xmlns="http://www.w3.org/2000/svg"
 width="512.000000pt" height="512.000000pt" viewBox="0 0 512.000000 512.000000"
 preserveAspectRatio="xMidYMid meet">

<g transform="translate(0.000000,512.000000) scale(0.100000,-0.100000)"
fill="#000000" stroke="none">
<path d="M2355 5109 c-631 -48 -1193 -315 -1642 -783 -326 -338 -556 -766
-652 -1208 -40 -188 -55 -334 -55 -563 -1 -222 7 -309 45 -497 105 -523 392
-1034 776 -1383 607 -551 1410 -776 2223 -624 478 90 926 322 1279 664 424
411 689 937 772 1535 20 142 18 517 -4 660 -128 840 -637 1553 -1377 1929
-306 156 -632 245 -991 270 -161 12 -214 12 -374 0z m457 -375 c509 -70 981
-310 1339 -681 229 -238 391 -502 488 -798 89 -273 131 -662 101 -930 -108
-939 -856 -1752 -1763 -1915 -175 -32 -455 -46 -611 -32 -665 61 -1273 430
-1649 1002 -76 115 -180 323 -222 440 -125 352 -155 803 -79 1178 112 557 469
1082 949 1394 268 175 579 294 890 342 126 20 418 20 557 0z"/>
<path d="M2875 3458 c-396 -324 -769 -630 -829 -679 l-109 -89 389 1 389 0
444 675 c244 371 442 676 440 678 -2 2 -328 -262 -724 -586z"/>
<path d="M1959 1751 c-247 -376 -448 -685 -447 -686 2 -1 193 154 424 344 232
190 605 497 830 681 l409 335 -65 2 c-36 2 -208 4 -383 5 l-318 3 -450 -684z"/>
</g>
</svg>
